<?xml version="1.0" encoding="UTF-8"?>
<svg width="123px" height="31px" viewBox="0 0 123 31" version="1.1" xmlns="http://www.w3.org/2000/svg"
>
  <!-- Generator: Sketch 52.4 (67378) - http://www.bohemiancoding.com/sketch -->
  <title>plate</title>
  <desc>Created with Sketch.</desc>
  <g id="parents" stroke="none" stroke-width="1" fill="none" fill-rule="evenodd">
    <g id="contact-driver" transform="translate(-168.000000, -242.000000)">
      <g id="plate" transform="translate(168.000000, 242.000000)">
        <rect id="Rectangle" stroke="#979797" fill-rule="nonzero" x="0.5" y="0.5" width="122" height="29" rx="6"></rect>
        <path d="M6,1 L15,1 L15,29 L6,29 C3.23857625,29 1,26.7614237 1,24 L1,6 C1,3.23857625 3.23857625,1 6,1 Z"
              id="Rectangle" fill="#113293" fill-rule="nonzero"></path>
        <path d="M93.5,1.41428571 L93.5,29.5857143" id="Line" stroke="#979797" stroke-linecap="square"
              fill-rule="nonzero"></path>
        <path d="M7.52788398,2.01466117 L7.50322966,9.59871218" id="Line-Copy" stroke="#35905E" stroke-width="2"
              stroke-linecap="square" fill-rule="nonzero"
              transform="translate(8.003230, 6.012998) rotate(89.813743) translate(-8.003230, -6.012998) "></path>
        <path d="M7.52788398,4.01466117 L7.50322966,11.5987122" id="Line-Copy-2" stroke="#FFFFFF" stroke-width="2"
              stroke-linecap="square" fill-rule="nonzero"
              transform="translate(8.003230, 8.012998) rotate(89.813743) translate(-8.003230, -8.012998) "></path>
        <path d="M7.52142466,6.01466117 L7.49677034,13.5987122" id="Line-Copy-3" stroke="#D0021B" stroke-width="2"
              stroke-linecap="square" fill-rule="nonzero"
              transform="translate(7.996770, 10.012998) rotate(89.813743) translate(-7.996770, -10.012998) "></path>
        <text id="I.R.-IRAN" font-family="LucidaGrande-Bold, Lucida Grande" font-size="3" font-weight="bold"
              line-spacing="3" fill="#FFFFFF">
          <tspan x="4" y="22">I.R.</tspan>
          <tspan x="11.8046875" y="23.5068359" font-family="YekanBakh-News, Yekan Bakh" font-weight="500"></tspan>
          <tspan x="4" y="25">IRAN</tspan>
        </text>
      </g>
    </g>
  </g>
</svg>
