<?xml version="1.0" encoding="UTF-8"?>
<svg width="565px" height="127px" viewBox="0 0 565 127" version="1.1" xmlns="http://www.w3.org/2000/svg"
>
  <!-- Generator: Sketch 52.4 (67378) - http://www.bohemiancoding.com/sketch -->
  <title>Slice</title>
  <desc>Created with Sketch.</desc>
  <g id="Page-1" stroke="none" stroke-width="1" fill="none" fill-rule="evenodd">
    <g id="qqqqqqq" transform="translate(0.000000, -3.000000)">
      <g id="g14"
         transform="translate(283.000000, 65.499994) scale(-1, 1) rotate(-180.000000) translate(-283.000000, -65.499994) translate(0.000000, -0.000006)">
        <g id="g20" transform="translate(0.006133, 6.132531)" fill="#0E1030">
          <path
            d="M42.6666656,0 L0.826666646,0 L0.826666646,19.9319995 L41.0506656,19.9319995 C49.6693321,19.9319995 53.9786653,22.6253328 53.9786653,28.0133326 C53.9786653,32.4413325 50.2359987,38.635999 42.7559989,46.5986655 C35.2733325,54.5586653 27.0439993,62.1319984 18.0653329,69.3146649 L32.0719992,86.5533312 C43.2053323,77.2159981 53.469332,67.1279983 62.8679984,56.2959986 C72.2639982,45.4599989 76.9639981,36.3906658 76.9639981,29.0906659 C76.9639981,25.9759994 76.7226647,23.4026661 76.2466648,21.3693328 C78.759998,20.4093328 82.0519979,19.9319995 86.1213312,19.9319995 L90.6106644,19.9319995 L90.6106644,0 L86.1213312,0 C78.2213314,0 71.3973315,1.73466662 65.6519984,5.20799987 C60.1439985,1.73466662 52.481332,0 42.6666656,0"
            id="path22"></path>
        </g>
        <g id="g24" transform="translate(87.041864, 0.013331)" fill="#0E1030" fill-rule="nonzero">
          <path
            d="M37.3333324,25.3333327 C42.5986656,23.6559994 46.5493322,22.5186661 49.1853321,21.9213328 C51.8159987,21.3213328 54.2706653,21.0239995 56.5466653,21.0239995 C60.9733318,21.0239995 64.4479984,23.4479994 66.962665,28.2959993 C69.4759983,33.1439992 70.7333316,38.679999 70.7333316,44.9066655 C70.7333316,48.8573321 70.0733316,52.8346653 68.7573316,56.8479986 C67.4399983,60.8573318 65.434665,64.2106651 62.7426651,66.9039983 C60.0493318,69.5973316 56.7266652,70.9439982 52.7759987,70.9439982 C47.1479988,70.9439982 42.6586656,68.6093316 39.307999,63.9413317 C35.9559991,59.2719985 34.2813325,53.405332 34.2813325,46.3426655 C34.2813325,39.159999 35.2973325,32.1573325 37.3333324,25.3333327 M31.2279992,6.11866651 L0.341333325,6.11866651 L0.341333325,26.0519993 L14.169333,26.0519993 C12.4906664,32.7546658 11.653333,39.815999 11.653333,47.2413322 C11.653333,54.8999986 13.329333,61.9933318 16.6826662,68.5199983 C20.0319995,75.0439981 24.9119994,80.2813313 31.3173326,84.2319979 C37.7199991,88.1826645 45.2933322,90.1586644 54.033332,90.1586644 C62.4119984,90.1586644 69.5053316,88.1213311 75.3119981,84.0533312 C81.1173313,79.9813313 85.4866645,74.4733315 88.4199978,67.5319983 C91.353331,60.5879985 92.8199977,52.8066653 92.8199977,44.1879989 C92.8199977,37.6026657 91.7706644,31.0173326 89.6773311,24.4359994 C87.5826645,17.8506662 83.9013312,12.253333 78.6346647,7.64533314 C73.3639982,3.03866659 66.3613317,0.731999982 57.6253319,0.731999982 C51.877332,0.731999982 43.0799989,2.52933327 31.2279992,6.11866651"
            id="path26"></path>
        </g>
        <g id="g28" transform="translate(181.921462, 0.498398)" fill="#009B98">
          <path
            d="M15.9999996,19.9999995 C29.7639993,19.9999995 36.6493324,28.1999993 36.6493324,44.5999989 L36.6493324,89.6666644 L59.6359985,89.6666644 L59.6359985,51.0639987 C59.6359985,41.7266656 58.5573319,33.6453325 56.4039986,26.822666 C54.2479986,19.9999995 51.0759987,14.6746663 46.8853322,10.8413331 C43.1733323,7.36933315 38.6253324,4.73733321 33.2386658,2.93999993 C27.8519993,1.14266664 21.8626661,0.247999994 15.281333,0.247999994 C11.5719997,0.247999994 6.66133317,0.606666652 0.555999986,1.32266663 C0.555999986,1.32266663 9.02666644,9.42666643 11.1199997,20.2319995 C12.3319997,20.0373328 14.4426663,19.9999995 15.9999996,19.9999995"
            id="path30"></path>
        </g>
        <g id="g32" transform="translate(257.048394, 6.132531)" fill="#009B98">
          <path
            d="M38.999999,0 C13.141333,0 0.2133333,10.8919997 0.2133333,32.6813325 L0.2133333,121.030664 L23.3773327,121.030664 L23.3773327,35.3759991 C23.3773327,30.2266659 24.5733327,26.3653327 26.9693326,23.7933327 C29.3626659,21.2173328 33.6133325,19.9319995 39.7186656,19.9319995 L49.2359987,19.9319995 L49.2359987,0 L38.999999,0 Z"
            id="path34"></path>
        </g>
        <g id="g36" transform="translate(301.820526, 5.857731)" fill="#009B98">
          <path
            d="M218.666661,70.6666649 C233.630661,70.5453316 244.794661,67.7039983 252.155994,62.1373318 C259.51866,56.5706653 263.199993,46.7226655 263.199993,32.5973325 L263.199993,0.27466666 L0.895999978,0.27466666 L0.895999978,20.2066662 L240.214661,20.2066662 L240.214661,32.0586659 C240.214661,36.8453324 239.735994,40.5573323 238.778661,43.1919989 C237.818661,45.8239989 235.663994,47.8613321 232.313328,49.2973321 C228.961328,50.7346654 223.753328,51.4519987 216.691995,51.4519987 L191.370662,51.4519987 L183.470662,64.9199984 L241.830661,124.895997 L257.09466,110.351997 L218.666661,70.6666649 Z"
            id="path38"></path>
        </g>
        <g id="g66" transform="translate(97.730664, 101.496395)" fill="#000000">
          <polygon id="path68"
                   points="38.6666657 25.666666 0.882666645 6.56133314 4.11066656 0.17999997 41.8933323 19.2853328"></polygon>
        </g>
      </g>
    </g>
  </g>
</svg>
